<?xml version="1.0" encoding="UTF-8"?><svg id="Layer_1" xmlns="http://www.w3.org/2000/svg" width="108" height="105" viewBox="0 0 108 105"><defs><style>.cls-1,.cls-2{stroke-width:0px;}.cls-3{fill:none;stroke:#000;stroke-linecap:round;stroke-miterlimit:10;stroke-width:5px;}.cls-2{fill:#fff;}</style></defs><rect class="cls-2" x="3.5" y="3.5" width="100" height="4"/><path class="cls-1" d="m103.76,0H3.24C1.45,0,0,1.45,0,3.24v4.53c0,.89.36,1.7.95,2.29.93.93,2.07.95,2.29.95h100.53c1.79,0,3.24-1.45,3.24-3.24V3.24c0-1.79-1.45-3.24-3.24-3.24h0Z"/><path class="cls-1" d="m104.76,105H4.24c-.22,0-1.36-.02-2.29-.95-.59-.59-.95-1.39-.95-2.29v-4.53c0-1.79,1.45-3.24,3.24-3.24h100.53c1.79,0,3.24,1.45,3.24,3.24v4.53c0,1.79-1.45,3.24-3.24,3.24Z"/><path class="cls-3" d="m31.66,45.63c-18.69-7.61-15.5-31.28-15.66-33.63-.17-2.52-.09-4.61,0-6"/><path class="cls-3" d="m52.88,50c9.5-.5,14.86-2.26,18-3,23.5-5.5,19.83-32.49,20-35,.17-2.52.09-4.61,0-6"/><path class="cls-3" d="m75.5,54.09c19.49,7.29,16.22,31.54,16.38,33.91.17,2.52.09,4.61,0,6"/><path class="cls-3" d="m54,50c-9.5.5-14.86,2.26-18,3-23.5,5.5-19.83,32.49-20,35-.17,2.52-.09,4.61,0,6"/></svg>