<?xml version="1.0" encoding="UTF-8"?><svg id="Layer_1" xmlns="http://www.w3.org/2000/svg" width="36.17" height="47.5" viewBox="0 0 36.17 47.5"><defs><style>.cls-1{fill:none;stroke:#50bf97;stroke-linecap:round;stroke-miterlimit:10;}</style></defs><path class="cls-1" d="m21.5,16C11,25.5,5,36.5.5,47"/><path class="cls-1" d="m14,39.5c1.97-.12,4.87-.55,8-2,8.92-4.12,11.98-12.91,12.5-14.5,3.76-11.5-2.67-21.28-3.5-22.5"/><path class="cls-1" d="m5.75,36.16c-1.23-1.72-2.98-4.66-3.75-8.66-.36-1.88-1.57-8.13,2-14C8.54,6.03,20,5.5,23,4.5c.89-.3,4.23-.56,7-3,.46-.41.8-.77,1-1"/></svg>