<?xml version="1.0" encoding="UTF-8"?><svg id="Layer_1" xmlns="http://www.w3.org/2000/svg" width="102" height="112" viewBox="0 0 102 112"><defs><style>.cls-1,.cls-2{stroke-width:0px;}.cls-2{fill:#fff;}</style></defs><path class="cls-2" d="m0,112C0,74.67,0,37.33,0,0c34,0,68,0,102,0,0,37.33,0,74.67,0,112-34,0-68,0-102,0Zm54.75-38.41c10.06,2.65,21.08-4.17,28.24-15.02,6.58-9.96,4.29-36.55-2.06-42.67-5.52,1.81-10.64,3.55-15.8,5.14-3.49,1.08-7.1,1.79-10.58,2.91-17.15,5.54-24.97,20.17-18.23,36.83,2.99,7.39,3.09,13.18-.79,19.76-1.47,2.5-1.82,5.65-2.69,8.5.54.21,1.08.42,1.62.64,6.51-19.44,17.65-35.89,31.95-50.46-5.05,3.61-9.49,7.72-13.36,12.31-4.01,4.76-7.48,9.98-11.27,15.12-10.27-14.48-6.17-31.25,9.05-38.67,1.94-.94,3.96-1.77,6.02-2.39,6.99-2.09,13.99-4.17,21.07-5.93.94-.23,3.21,1.22,3.38,2.15,1.35,7.62,3.72,15.41,3.16,22.96-1.14,15.47-10.82,24.89-26.08,27.77-1.23.23-2.43.69-3.64,1.04Z"/><path class="cls-1" d="m54.75,73.59c1.21-.35,2.41-.81,3.64-1.04,15.26-2.88,24.94-12.3,26.08-27.77.56-7.55-1.81-15.33-3.16-22.96-.17-.93-2.44-2.39-3.38-2.15-7.08,1.76-14.08,3.84-21.07,5.93-2.06.62-4.08,1.44-6.02,2.39-15.22,7.42-19.32,24.19-9.05,38.67,3.8-5.14,7.26-10.37,11.27-15.12,3.87-4.59,8.31-8.7,13.36-12.31-14.3,14.57-25.44,31.03-31.95,50.46-.54-.21-1.08-.42-1.62-.64.86-2.85,1.22-6.01,2.69-8.5,3.88-6.58,3.78-12.37.79-19.76-6.74-16.66,1.08-31.29,18.23-36.83,3.48-1.12,7.08-1.83,10.58-2.91,5.17-1.59,10.28-3.34,15.8-5.14,6.35,6.11,8.64,32.7,2.06,42.67-7.17,10.84-18.18,17.66-28.24,15.02Z"/></svg>