<?xml version="1.0" encoding="UTF-8"?><svg id="Layer_1" xmlns="http://www.w3.org/2000/svg" width="85" height="85" viewBox="0 0 85 85"><defs><style>.cls-1,.cls-2{stroke-width:0px;}.cls-2{fill:#fff;}</style></defs><path class="cls-2" d="m0,0h85v85H0V0Zm52.17,73.11c13.02-.88,17.48-4.61,21.62-17.4h-21.51c-.28-1-.64-2.32-1.25-4.52-4,4.79-7.48,8.97-11.15,13.37,3.69,4.41,7.24,8.65,11.37,13.58.43-2.35.66-3.6.92-5.04Zm-9.14-42.57c5.86.96,10.55,1.86,15.28,2.41.94.11,2.59-.85,2.95-1.73,1.86-4.39,3.41-8.92,5.26-13.95-2.11.54-3.58.92-4.97,1.27-3.2-4.23-4.46-10.15-10.96-10.24-5.03-.07-10.06-.01-15.01-.01,4.14,6.47,7.95,12.43,11.83,18.49-1.46,1.25-2.43,2.08-4.38,3.75Zm-29.18,35.36c3.72-7.04,7.03-13.3,10.3-19.48,1.97.53,3.27.87,5.27,1.41-1.9-5.11-3.4-9.5-5.21-13.76-.39-.91-1.96-2.01-2.86-1.91-4.87.56-9.7,1.47-15.44,2.41,1.87,1.61,2.93,2.52,4.49,3.86-10.74,10.83-.98,18.54,3.43,27.48Zm21.93-1.14c-.12-9.41,1.11-8.52-6.89-8.56-8.2-.05-11.71,3.11-11.87,10.55-.11,5.07,2.01,6.03,13.3,6.05q5.46,0,5.46-8.04Zm-2.97-33.12c1.83-3.03,3.49-5.68,5.05-8.38,2.94-5.11-1.57-13.53-7.61-13.87-1.41-.08-3.46.81-4.23,1.93-2.61,3.78-4.78,7.87-7.32,12.2,4.91,2.83,9.32,5.37,14.12,8.13Zm22.6,9.97c1.34,2.51,2.43,4.69,3.65,6.79,3.82,6.55,8.2,7.65,14.82,3.89,2.98-1.69,3.9-4.04,2.29-7.04-2.09-3.88-4.39-7.64-6.76-11.73-4.83,2.79-9.22,5.33-13.99,8.09Z"/><path class="cls-1" d="m52.17,73.11c-.26,1.43-.49,2.69-.92,5.04-4.13-4.94-7.68-9.17-11.37-13.58,3.68-4.41,7.16-8.58,11.15-13.37.61,2.19.97,3.51,1.25,4.52h21.51c-4.14,12.79-8.59,16.53-21.62,17.4Z"/><path class="cls-1" d="m43.03,30.55c1.95-1.67,2.92-2.51,4.38-3.75-3.88-6.06-7.69-12.03-11.83-18.49,4.96,0,9.99-.06,15.01.01,6.51.09,7.76,6.01,10.96,10.24,1.39-.36,2.86-.73,4.97-1.27-1.86,5.03-3.4,9.55-5.26,13.95-.37.87-2.02,1.84-2.95,1.73-4.73-.55-9.42-1.45-15.28-2.41Z"/><path class="cls-1" d="m13.85,65.91c-4.41-8.94-14.17-16.65-3.43-27.48-1.56-1.34-2.62-2.25-4.49-3.86,5.74-.94,10.57-1.85,15.44-2.41.9-.1,2.47,1,2.86,1.91,1.81,4.26,3.31,8.65,5.21,13.76-2-.53-3.3-.88-5.27-1.41-3.27,6.18-6.58,12.44-10.3,19.48Z"/><path class="cls-1" d="m35.78,64.77q0,8.04-5.46,8.04c-11.29-.02-13.41-.98-13.3-6.05.16-7.44,3.67-10.6,11.87-10.55,7.99.05,6.77-.84,6.89,8.56Z"/><path class="cls-1" d="m32.81,31.65c-4.8-2.76-9.21-5.3-14.12-8.13,2.55-4.33,4.71-8.42,7.32-12.2.77-1.12,2.83-2.01,4.23-1.93,6.04.34,10.55,8.76,7.61,13.87-1.56,2.71-3.22,5.35-5.05,8.38Z"/><path class="cls-1" d="m55.4,41.61c4.77-2.76,9.16-5.3,13.99-8.09,2.37,4.09,4.67,7.85,6.76,11.73,1.62,3.01.69,5.35-2.29,7.04-6.61,3.76-11,2.66-14.82-3.89-1.23-2.1-2.31-4.28-3.65-6.79Z"/></svg>