<?xml version="1.0" encoding="UTF-8"?><svg id="Layer_1" xmlns="http://www.w3.org/2000/svg" width="589.33" height="963.03" viewBox="0 0 589.33 963.03"><defs><style>.cls-1{stroke-width:0px;}.cls-1,.cls-2,.cls-3{fill:none;}.cls-2{stroke-width:14px;}.cls-2,.cls-3{stroke:#000;stroke-linecap:round;stroke-miterlimit:10;}.cls-3{stroke-width:9.75px;}</style></defs><path class="cls-2" d="m536.24,101.72c-4.89,63.85-23.32,149.96-79.61,233.96-53.85,80.36-120.39,126.04-160.79,149.23"/><path class="cls-2" d="m55.79,859.06c5.97-62.74,25.26-144.53,78.79-224.42,53.85-80.36,120.39-126.04,160.79-149.23"/><path class="cls-2" d="m53.87,102.41c5.07,63.84,23.75,149.89,80.28,233.73,31.84,47.22,68.04,82.41,100.69,108.07"/><path class="cls-2" d="m536.68,860.36c-5.93-62.98-25.29-145.6-79.62-226.18-32.38-48.02-69.27-83.6-102.35-109.37"/><line class="cls-1" x1="4.88" y1="41.8" x2="582.33" y2="48.03"/><line class="cls-3" x1="568.31" y1="4.88" x2="5.27" y2="4.89"/><line class="cls-3" x1="567.91" y1="41.87" x2="4.88" y2="41.89"/><line class="cls-1" x1="11.88" y1="956.8" x2="589.33" y2="963.03"/><line class="cls-3" x1="575.31" y1="919.88" x2="12.27" y2="919.89"/><line class="cls-3" x1="574.91" y1="956.87" x2="11.88" y2="956.89"/></svg>