<?xml version="1.0" encoding="UTF-8"?><svg id="Layer_1" xmlns="http://www.w3.org/2000/svg" width="83" height="96" viewBox="0 0 83 96"><defs><style>.cls-1,.cls-2{stroke-width:0px;}.cls-2{fill:#fff;}</style></defs><path class="cls-2" d="m83,96c-27.67,0-55.33,0-83,0C0,64,0,32,0,0c27.67,0,55.33,0,83,0,0,32,0,64,0,96Zm-12.21-8.3c1.19-6.13.81-11.11-3.53-15.67-4.91-5.17-8.98-11.13-13.72-16.48-2.67-3.02-3-5.23-.14-8.43,5.1-5.69,9.49-12.03,14.67-17.63,3.25-3.51,3.7-7.35,3.1-11.5-.18-1.23-2.05-3.14-3.17-3.15-13.14-.22-26.28-.2-39.42-.06-1.13.01-3.17,1.28-3.22,2.06-.26,4.03-.98,8.05,2.33,11.72,5.57,6.16,10.43,12.95,15.89,19.21,2.41,2.76,2.09,4.58-.15,7.17-5.23,6.03-9.95,12.5-15.28,18.43-4.04,4.49-3.24,9.24-2.52,14.32h45.15Z"/><path class="cls-1" d="m70.79,87.7H25.63c-.72-5.08-1.51-9.83,2.52-14.32,5.33-5.93,10.05-12.4,15.28-18.43,2.25-2.59,2.56-4.41.15-7.17-5.46-6.26-10.33-13.05-15.89-19.21-3.31-3.67-2.59-7.68-2.33-11.72.05-.78,2.09-2.05,3.22-2.06,13.14-.14,26.28-.17,39.42.06,1.12.02,2.99,1.93,3.17,3.15.6,4.15.15,7.99-3.1,11.5-5.19,5.6-9.57,11.94-14.67,17.63-2.87,3.2-2.53,5.41.14,8.43,4.73,5.35,8.8,11.31,13.72,16.48,4.34,4.57,4.73,9.54,3.53,15.67Zm-4.42-60.99H30.15c6.31,7.73,11.92,14.6,18.08,22.15,6.14-7.5,11.77-14.37,18.14-22.15Zm.06,49.22c-6.33-7.76-11.98-14.68-18.2-22.3-6.15,7.55-11.79,14.48-18.15,22.3h36.35Zm-18.25,9.14c5.48,0,10.98.17,16.44-.13,1.29-.07,2.49-1.71,3.73-2.63-1.14-1.06-2.25-3.02-3.41-3.04-11.13-.23-22.27-.23-33.4,0-1.17.02-2.3,1.95-3.45,2.99,1.21.94,2.38,2.62,3.64,2.69,5.47.3,10.96.13,16.44.13Zm-.09-67.65c-5.48,0-10.97-.18-16.43.13-1.24.07-2.38,1.82-3.57,2.79,1.19,1,2.36,2.85,3.57,2.87,10.95.23,21.91.25,32.86,0,1.3-.03,2.55-2.03,3.82-3.12-1.28-.89-2.51-2.49-3.83-2.56-5.46-.29-10.95-.12-16.43-.12Z"/><path class="cls-2" d="m66.37,26.71c-6.37,7.78-12,14.65-18.14,22.15-6.16-7.55-11.77-14.42-18.08-22.15h36.22Z"/><path class="cls-2" d="m66.43,75.93H30.08c6.37-7.82,12-14.75,18.15-22.3,6.22,7.62,11.86,14.54,18.2,22.3Zm-6.72-3.02c-4.23-5.18-7.62-9.33-11.49-14.06-3.91,4.81-7.33,9.02-11.43,14.06h22.92Z"/><path class="cls-2" d="m48.18,85.06c-5.48,0-10.98.17-16.44-.13-1.26-.07-2.43-1.75-3.64-2.69,1.15-1.04,2.28-2.96,3.45-2.99,11.13-.23,22.27-.23,33.4,0,1.16.02,2.28,1.98,3.41,3.04-1.24.92-2.45,2.56-3.73,2.63-5.47.3-10.96.13-16.44.13Z"/><path class="cls-2" d="m48.09,17.41c5.48,0,10.96-.17,16.43.12,1.32.07,2.56,1.66,3.83,2.56-1.27,1.09-2.53,3.09-3.82,3.12-10.95.25-21.91.23-32.86,0-1.21-.03-2.38-1.87-3.57-2.87,1.19-.98,2.33-2.72,3.57-2.79,5.46-.31,10.95-.13,16.43-.13Z"/><path class="cls-1" d="m59.71,72.9h-22.92c4.1-5.04,7.52-9.25,11.43-14.06,3.86,4.73,7.25,8.88,11.49,14.06Z"/></svg>