<?xml version="1.0" encoding="UTF-8"?><svg id="Layer_1" xmlns="http://www.w3.org/2000/svg" width="112" height="125" viewBox="0 0 112 125"><defs><style>.cls-1{fill:none;stroke:#08408f;stroke-linecap:round;stroke-miterlimit:10;stroke-width:5px;}.cls-2{fill:#fff;}.cls-2,.cls-3{stroke-width:0px;}.cls-3{fill:#08408f;}</style></defs><rect class="cls-2" x="5.5" y="16.5" width="100" height="4"/><path class="cls-3" d="m105.76,13H5.24c-1.79,0-3.24,1.45-3.24,3.24v4.53c0,.89.36,1.7.95,2.29.93.93,2.07.95,2.29.95h100.53c1.79,0,3.24-1.45,3.24-3.24v-4.53c0-1.79-1.45-3.24-3.24-3.24h0Z"/><path class="cls-3" d="m106.76,118H6.24c-.22,0-1.36-.02-2.29-.95-.59-.59-.95-1.39-.95-2.29v-4.53c0-1.79,1.45-3.24,3.24-3.24h100.53c1.79,0,3.24,1.45,3.24,3.24v4.53c0,1.79-1.45,3.24-3.24,3.24Z"/><path class="cls-1" d="m28.06,55.44c-12.4-9.57-9.92-28.36-10.06-30.44-.17-2.52-.09-4.61,0-6"/><path class="cls-1" d="m53.88,63c9.5-.5,15.86-2.26,19-3,23.5-5.5,19.83-32.49,20-35,.17-2.52.09-4.61,0-6"/><path class="cls-1" d="m82.2,69.42c14.24,9.12,11.54,29.42,11.69,31.58.17,2.52.09,4.61,0,6"/><path class="cls-1" d="m55,63c-9.5.5-13.86,2.26-17,3-23.5,5.5-19.83,32.49-20,35-.17,2.52-.09,4.61,0,6"/></svg>