<?xml version="1.0" encoding="UTF-8"?><svg id="Layer_1" xmlns="http://www.w3.org/2000/svg" width="37.6" height="34.9" viewBox="0 0 37.6 34.9"><defs><style>.cls-1{fill:none;stroke:#ea4335;stroke-linecap:round;stroke-miterlimit:10;}</style></defs><path class="cls-1" d="m15.7,34.4c.73-1.11,1.63-2.8,2-5,.96-5.65-2.27-10.06-3-11"/><path class="cls-1" d="m4.7,15.4s0,0,0,0c-.35.65-.79,1.64-1,3-.16,1.01-.23,1.51,0,2,.29.6.81.9,1,1,1.07.58,2.27.23,3,0,.8-.25,1.22-.54,2-1,1.72-1.01,1.69-.76,4-2,3.02-1.62,3.36-2.19,3.5-2.5.51-1.1.24-2.28,0-3"/><polyline class="cls-1" points="10.29 5.65 1.7 1.4 8.2 9.9"/><path class="cls-1" d="m27.7,16.4c.4-1.32.85-3.6,0-6-1.74-4.94-8.04-6.86-12-7-.42-.02-.76,0-1,0"/><path class="cls-1" d="m27.7,9.4c1.46.61,2.42,1.41,3,2,2.7,2.73,3.87,7.51,2,10-.37.49-.43.33-1,1-2.15,2.53-2.02,5.71-2,6,.15,2.64,1.5,4.41,2,5"/><path class="cls-1" d="m36.7,29.4c.21-.63.79-2.63,0-5-.21-.63-.95-2.58-3-4"/><path class="cls-1" d="m4.7,15.4s3-5,3.5-5.5c1.43-1.43,1.72-1.58,2-2,.55-.8.52-1.69.5-2.5-.04-1.38-.6-3.72-.65-4.13-.03-.22-.01-.46-.01-.46,0-.08,0-.12.01-.13.29-.35,6.65,4.71,6.65,4.71,3.9,3.11,5.85,4.66,6,5,1.74,3.98-2.07,7.52,0,13,.35.92.76,1.62,1,2"/></svg>