<?xml version="1.0" encoding="UTF-8"?><svg id="Layer_1" xmlns="http://www.w3.org/2000/svg" width="64" height="57" viewBox="0 0 64 57"><defs><style>.cls-1,.cls-2{stroke-width:0px;}.cls-2{fill:#fff;}</style></defs><path class="cls-2" d="m64,57H0V0h64v57ZM16.65,18.18c-2.2,3.79-4.76,7.21-6.2,11.05-.91,2.42-1.26,6.32.08,8.04,2.2,2.81,5.65,1.46,8.51-.55,7.32-5.15,11.42-3.33,11.87,5.54.16,3.06-.95,6.18-1.49,9.28-.17.95-.38,1.89-.57,2.83,4.96-7.25,4.67-14.6.97-20.84,1.11-3.55,1.94-6.2,2.83-9.03-2.33,2.78-3.87,5.53-6.2,7.16-2.92,2.05-6.41,3.39-9.82,4.61-1.53.55-3.96.67-5.02-.19-.9-.74-1.04-3.44-.44-4.79,1.56-3.48,3.42-6.91,5.72-9.94,3.21-4.23,8.47-7.38,4.85-14.99,4.15,2.83,6.63,5.13,9.55,6.4,5.76,2.5,7.9,4.97,7.96,11.28.02,2.82-.75,5.67-.56,8.47.21,3.09,1.12,6.13,1.72,9.19.48-4.24-.29-8.2.2-12,1.4-10.88-.48-14.67-10.49-19.12-.17-.08-.16-.58-.35-1.37,5.31-.33,10.56.35,13.24,4.96,2.4,4.14,3.05,9.3,4.72,14.81v-9.98c6.69,4.57,8.08,11.92,3.8,17.94-3.96,5.56-3.47,12.07,2.16,16.12-5.19-7.62-3.63-13.47,3.07-19.52,1.31,5.17,2.44,9.6,3.87,15.2.87-6.43,0-11.1-3.26-15.32-.95-1.23-1.69-2.82-1.93-4.34-1.17-7.38-11.33-19.19-18.61-20.82-4.97-1.11-10.09-1.55-15.47-2.34-.17,1.25-.41,3.02-.69,5.08-4.38-1.9-8.66-3.75-12.94-5.61-.29.44-.58.88-.87,1.32,3.3,3.87,6.6,7.74,9.78,11.47Z"/><path class="cls-1" d="m16.65,18.18c-3.18-3.73-6.48-7.6-9.78-11.47.29-.44.58-.88.87-1.32,4.28,1.85,8.56,3.71,12.94,5.61.28-2.06.52-3.83.69-5.08,5.38.79,10.5,1.22,15.47,2.34,7.28,1.63,17.44,13.44,18.61,20.82.24,1.52.98,3.12,1.93,4.34,3.26,4.22,4.13,8.89,3.26,15.32-1.43-5.61-2.55-10.04-3.87-15.2-6.7,6.05-8.26,11.9-3.07,19.52-5.63-4.04-6.12-10.56-2.16-16.12,4.28-6.01,2.89-13.37-3.8-17.94v9.98c-1.67-5.52-2.32-10.67-4.72-14.81-2.68-4.61-7.93-5.29-13.24-4.96.19.79.18,1.29.35,1.37,10.02,4.45,11.9,8.24,10.49,19.12-.49,3.8.29,7.76-.2,12-.6-3.06-1.51-6.1-1.72-9.19-.19-2.8.59-5.64.56-8.47-.06-6.31-2.2-8.78-7.96-11.28-2.93-1.27-5.4-3.57-9.55-6.4,3.62,7.6-1.64,10.75-4.85,14.99-2.3,3.03-4.16,6.47-5.72,9.94-.61,1.35-.47,4.05.44,4.79,1.06.86,3.49.74,5.02.19,3.4-1.21,6.89-2.56,9.82-4.61,2.33-1.63,3.87-4.39,6.2-7.16-.89,2.84-1.71,5.48-2.83,9.03,3.7,6.24,3.98,13.58-.97,20.84.19-.94.4-1.88.57-2.83.54-3.09,1.65-6.22,1.49-9.28-.45-8.86-4.55-10.69-11.87-5.54-2.86,2.01-6.31,3.35-8.51.55-1.35-1.71-1-5.62-.08-8.04,1.45-3.84,4-7.26,6.2-11.05Zm4.85-4.66c-3.55-1.7-6.61-3.17-9.67-4.64-.15.26-.3.53-.45.79,2.18,2.41,4.36,4.82,6.82,7.54,1.19-1.33,2.08-2.33,3.3-3.69Z"/><path class="cls-2" d="m21.5,13.52c-1.22,1.36-2.11,2.36-3.3,3.69-2.46-2.72-4.64-5.13-6.82-7.54.15-.26.3-.53.45-.79,3.06,1.47,6.12,2.94,9.67,4.64Z"/></svg>