<svg width="90" height="56" viewBox="0 0 90 56" fill="none" xmlns="http://www.w3.org/2000/svg">
<path d="M18.2615 4.16782C22.3646 12.3741 26.4678 20.5343 30.5709 28.7867C32.5072 24.9601 34.3513 21.2258 36.1955 17.5376C38.685 12.5585 41.1746 7.53332 43.6641 2.55423C43.9407 2.0471 44.1712 1.49387 44.4017 0.940636C44.4478 0.84843 44.5861 0.710125 44.6323 0.756228C44.7245 0.756228 44.8628 0.84843 44.9089 0.940636C45.8309 2.83085 46.753 4.76716 47.7211 6.65737C48.8276 8.91641 50.0263 11.1293 51.1327 13.3884C53.484 18.0447 55.8352 22.7472 58.1403 27.4036C58.3248 27.8185 58.5092 28.2334 58.7397 28.7406C59.4773 27.2192 60.1689 25.8822 60.8604 24.4991C63.1194 19.9811 65.3785 15.5091 67.5914 10.991C68.6518 8.8703 69.7121 6.79568 70.7264 4.67496C70.9108 4.26003 71.1413 4.16782 71.5562 4.39834C72.4783 4.85937 73.4003 5.32039 74.3224 5.78142C74.7834 6.01193 74.599 6.28855 74.4607 6.56516C73.4925 8.50148 72.5244 10.4378 71.5562 12.4202C69.8504 15.8318 68.1446 19.2434 66.4388 22.6089C64.7791 25.9744 63.1194 29.2938 61.4136 32.6132C61.137 33.1664 61.137 33.4891 61.4136 34.0424C64.6869 40.5429 67.9141 47.0433 71.1874 53.5438C71.464 54.0509 71.6945 54.5581 71.9712 55.0652C72.0634 55.2496 72.0634 55.434 72.1556 55.6184C53.8067 55.6184 35.5039 55.6184 17.1089 55.6184C17.155 55.3879 17.2011 55.1574 17.2933 54.973C20.0595 49.4868 22.7796 44.0467 25.5457 38.5604C26.3295 37.039 27.0671 35.5177 27.8509 33.9963C28.0814 33.5352 28.0814 33.1664 27.8509 32.6593C25.6379 28.2795 23.4711 23.8998 21.2582 19.52C19.7829 16.6156 18.3076 13.665 16.8323 10.7605C16.0947 9.28523 15.3109 7.76384 14.5733 6.28855C14.3889 5.96583 14.5733 5.82753 14.8038 5.73532C15.9564 5.27429 17.0628 4.72106 18.2615 4.16782ZM54.6826 31.3684C54.9132 31.3684 55.1437 31.3684 55.4664 31.3684C53.6223 27.6802 51.8704 24.1303 50.0724 20.5804C48.2744 17.0766 46.6147 13.4806 44.6784 9.88456C41.0362 17.1227 37.5324 24.1764 33.9364 31.3684C34.4436 31.3684 34.8585 31.3684 35.3195 31.3684C41.5895 31.3684 47.8594 31.3684 54.0833 31.3684C54.1294 31.3684 54.1755 31.3684 54.2216 31.3684C54.3138 31.3684 54.4521 31.3684 54.5443 31.3684C54.5904 31.3684 54.6365 31.3684 54.6826 31.3684ZM65.1941 51.4231C65.2863 51.377 65.3324 51.377 65.4246 51.3309C65.2863 51.0082 65.1941 50.6855 65.0558 50.4088C62.8428 45.983 60.6299 41.511 58.3709 37.0852C58.0942 36.578 57.7715 36.0709 57.4949 35.5638C57.4027 35.5638 57.3105 35.5177 57.2183 35.5177C57.0339 35.5177 56.8956 35.5177 56.7112 35.5177C49.012 35.5177 41.3129 35.5638 33.6137 35.4716C32.3689 35.4716 31.6774 35.7943 31.1242 36.9929C28.8651 41.7415 26.5139 46.3979 24.1627 51.0543C24.1165 51.1465 24.0243 51.2848 23.9782 51.377C24.0704 51.377 24.2088 51.4231 24.301 51.4231C24.3932 51.4231 24.4393 51.4231 24.5315 51.4231C24.6237 51.4231 24.6698 51.4231 24.762 51.4231C24.9925 51.4231 25.2691 51.4231 25.4996 51.4231C38.0857 51.4231 50.7178 51.4231 63.3039 51.4231C63.9032 51.4231 64.5486 51.4231 65.1941 51.4231Z" fill="black"/>
</svg>
