<svg width="84" height="51" viewBox="0 0 84 51" fill="none" xmlns="http://www.w3.org/2000/svg">
<g clip-path="url(#clip0_755_21676)">
<path d="M67.6186 29.919C67.6186 29.919 67.5586 28.659 66.8986 27.759C66.4786 27.159 65.8186 26.739 64.7986 26.559C64.4986 26.499 64.2586 26.499 63.9586 26.499C63.6586 26.499 63.0586 26.499 62.3986 26.499C61.4386 26.499 60.3586 26.499 59.9386 26.499V49.719C60.3586 49.719 61.4386 49.719 62.3986 49.719C63.0586 49.719 63.6586 49.719 63.9586 49.719C64.1986 49.719 64.4986 49.719 64.7986 49.659C65.8186 49.479 66.4786 49.059 66.8986 48.459C67.5586 47.559 67.6186 46.299 67.6186 46.299V38.139V29.919ZM64.6186 32.739V43.419V45.039C64.6186 46.659 64.3186 46.779 64.1386 46.899C64.0786 46.959 63.9586 46.959 63.8986 46.959H63.1786C63.0586 46.959 62.9986 46.839 62.9986 46.779V46.359V29.859V29.439C62.9986 29.319 63.1186 29.259 63.1786 29.259H63.8986C63.9586 29.259 64.0186 29.259 64.1386 29.319C64.3186 29.439 64.6186 29.559 64.6186 31.179V32.739Z" fill="black"/>
<path d="M58.2588 49.6585V29.8585C58.2588 29.8585 58.1988 28.5985 57.5388 27.6985C57.1188 27.0985 56.4588 26.6785 55.4388 26.4985C55.1388 26.4385 54.8988 26.4385 54.5988 26.4385C54.2988 26.4385 53.6988 26.4385 53.0388 26.4385C52.0788 26.4385 50.9988 26.4385 50.5788 26.4385V49.6585H53.5788V29.8585V29.4385C53.5788 29.3185 53.6988 29.2585 53.7588 29.2585H54.4788C54.5388 29.2585 54.5988 29.2585 54.7188 29.3185C54.8988 29.4385 55.1988 29.5585 55.1988 31.1785V32.7985V49.7185L58.2588 49.6585Z" fill="black"/>
<path d="M48.9001 26.4385H45.9001V29.4985H48.9001V26.4385Z" fill="black"/>
<path d="M44.1598 26.4385H41.1598V43.4785V45.0985C41.1598 46.7185 40.8598 46.8385 40.6798 46.9585C40.6198 47.0185 40.4998 47.0185 40.4398 47.0185H40.1998C40.1398 47.0185 40.0798 47.0185 39.9598 46.9585C39.7798 46.8385 39.4798 46.7185 39.4798 45.0985V43.4785V26.4385H36.4798V43.4785V45.0985C36.4798 46.7185 36.1798 46.8385 35.9998 46.9585C35.9398 47.0185 35.8198 47.0185 35.7598 47.0185H35.5198C35.4598 47.0185 35.3998 47.0185 35.2798 46.9585C35.0998 46.8385 34.7998 46.7185 34.7998 45.0985V43.4785V26.4385H31.7998V46.3585C31.7998 46.3585 31.8598 47.6185 32.5198 48.5185C32.9398 49.1185 33.5998 49.5385 34.6198 49.7185C34.8598 49.7785 35.1598 49.7785 35.3998 49.7785C35.5198 49.7785 35.5798 49.7785 35.6398 49.7785C35.6998 49.7785 35.8198 49.7785 35.8798 49.7785C36.1198 49.7785 36.4198 49.7185 36.6598 49.7185C37.1998 49.6585 37.6198 49.4785 37.9198 49.2985C38.2798 49.4785 38.6998 49.6585 39.1798 49.7185C39.4198 49.7785 39.7198 49.7785 39.9598 49.7785C40.0798 49.7785 40.1398 49.7785 40.1998 49.7785C40.2598 49.7785 40.3798 49.7785 40.4398 49.7785C40.6798 49.7785 40.9798 49.7185 41.2198 49.7185C42.2398 49.5385 42.8998 49.1185 43.3198 48.5185C43.9798 47.6185 44.0398 46.3585 44.0398 46.3585V46.2385L44.1598 26.4385Z" fill="black"/>
<path d="M44.1597 0.820312H41.1597V17.8603V19.4803C41.1597 21.1003 40.8597 21.2203 40.6797 21.3403C40.6197 21.4003 40.4997 21.4003 40.4397 21.4003H40.1997C40.1397 21.4003 40.0797 21.4003 39.9597 21.3403C39.7797 21.2203 39.4797 21.1003 39.4797 19.4803V17.8603V0.820312H36.4797V17.8603V19.4803C36.4797 21.1003 36.1797 21.2203 35.9997 21.3403C35.9397 21.4003 35.8197 21.4003 35.7597 21.4003H35.5197C35.4597 21.4003 35.3997 21.4003 35.2797 21.3403C35.0997 21.2203 34.7997 21.1003 34.7997 19.4803V17.8603V0.820312H31.7997V20.7403C31.7997 20.7403 31.8597 22.0003 32.5197 22.9003C32.9397 23.5003 33.5997 23.9203 34.6197 24.1003C34.8597 24.1603 35.1597 24.1603 35.3997 24.1603C35.5197 24.1603 35.5797 24.1603 35.6397 24.1603C35.6997 24.1603 35.8197 24.1603 35.8797 24.1603C36.1197 24.1603 36.4197 24.1003 36.6597 24.1003C37.1997 24.0403 37.6197 23.8603 37.9197 23.6803C38.2797 23.8603 38.6997 24.0403 39.1797 24.1003C39.4197 24.1603 39.7197 24.1603 39.9597 24.1603C40.0797 24.1603 40.1397 24.1603 40.1997 24.1603C40.2597 24.1603 40.3797 24.1603 40.4397 24.1603C40.6797 24.1603 40.9797 24.1003 41.2197 24.1003C42.2397 23.9203 42.8997 23.5003 43.3197 22.9003C43.9797 22.0003 44.0397 20.7403 44.0397 20.7403V20.6203L44.1597 0.820312Z" fill="black"/>
<path d="M68.9991 0.820312H63.2391V3.82031H64.6191V24.0403H67.6191V3.82031H68.9991V0.820312Z" fill="black"/>
<path d="M53.5801 3.82031V0.820312H47.9401H45.9001V24.0403C45.9001 24.0403 49.6201 24.0403 49.9201 24.0403C50.1601 24.0403 50.5201 24.0403 50.7601 23.9803C51.7801 23.8003 52.4401 23.3803 52.8601 22.7803C53.5201 21.8803 53.5801 20.6203 53.5801 20.6203V12.4603V11.6203H50.5801V17.8003V19.4203C50.5801 21.0403 50.2801 21.1603 50.1001 21.2803C50.0401 21.3403 49.9201 21.3403 49.8601 21.3403H49.1401C49.0201 21.3403 48.9601 21.2203 48.9601 21.1603V20.6203V9.70031H53.5801V6.70031H48.9001V3.82031H53.5801Z" fill="black"/>
<path d="M62.0993 12.4592C62.0393 12.3992 62.0393 12.3392 61.9793 12.2792C61.5593 11.6792 60.8993 11.2592 59.8793 11.0792C59.6393 11.0792 59.3393 11.0192 59.0993 11.0192H58.9793H58.7393C58.6793 11.0192 58.6193 11.0192 58.5593 10.9592C58.3793 10.8392 58.0793 10.7192 58.0793 9.09922V7.47922V6.93922V5.31922C58.0793 3.69922 58.3793 3.57922 58.5593 3.45922C58.6193 3.39922 58.7393 3.39922 58.7993 3.39922H59.0393C59.0993 3.39922 59.1593 3.39922 59.2793 3.45922C59.4593 3.57922 59.7593 3.69922 59.7593 5.31922V6.93922V9.27922H62.7593V4.23922V4.11922C62.7593 4.11922 62.6993 2.85922 62.0393 1.95922C61.6193 1.35922 60.9593 0.939219 59.9393 0.759219C59.6993 0.699219 59.3993 0.699219 59.1593 0.699219C59.0393 0.699219 58.9793 0.699219 58.9193 0.699219C58.8593 0.699219 58.7393 0.699219 58.6793 0.699219C58.4393 0.699219 58.1393 0.759219 57.8993 0.759219C56.8793 0.939219 56.2193 1.35922 55.7993 1.95922C55.1393 2.85922 55.0793 4.11922 55.0793 4.11922V7.23922V10.3592C55.0793 10.3592 55.1393 11.4992 55.6793 12.3992C55.7393 12.4592 55.7393 12.5192 55.7993 12.5792C56.2193 13.1792 56.8793 13.5992 57.8993 13.7792C58.1393 13.8392 58.4393 13.8392 58.6793 13.8392H58.7993H59.0393C59.0993 13.8392 59.1593 13.8392 59.2193 13.8992C59.3993 13.9592 59.6393 14.1392 59.6993 15.5792V17.9192V19.5392C59.6993 21.1592 59.3993 21.2792 59.2193 21.3992C59.1593 21.4592 59.0393 21.4592 58.9793 21.4592H58.7393C58.6793 21.4592 58.6193 21.4592 58.4993 21.3992C58.3193 21.2792 58.0193 21.1592 58.0193 19.5392V17.9192V15.5792H55.0193V20.7392C55.0193 20.7392 55.0793 21.9992 55.7393 22.8992C56.1593 23.4992 56.8193 23.9192 57.8393 24.0992C58.0793 24.1592 58.3793 24.1592 58.6193 24.1592C58.7393 24.1592 58.7993 24.1592 58.8593 24.1592C58.9193 24.1592 59.0393 24.1592 59.0993 24.1592C59.3393 24.1592 59.6393 24.0992 59.8793 24.0992C60.8993 23.9192 61.5593 23.4992 61.9793 22.8992C62.6393 21.9992 62.6993 20.7392 62.6993 20.7392V20.6192V19.6592V14.6192V14.4992C62.6393 14.4392 62.6393 13.2992 62.0993 12.4592Z" fill="black"/>
<path d="M21.3596 47.7392C21.3596 47.2592 21.2996 46.7192 21.2996 46.2392C21.2996 45.8792 21.2396 45.5792 21.1796 45.2192C21.0596 44.2592 20.9396 43.2392 20.6996 42.2792C20.5196 41.3792 20.2796 40.5392 20.0396 39.6392C19.6796 38.3792 19.2596 37.1192 18.8396 35.8592C18.5996 35.0192 18.3596 34.2392 18.1796 33.3992C18.0596 32.9792 17.9996 32.6192 17.9396 32.1992C17.8196 31.7192 17.7596 31.2392 17.6996 30.7592C17.4596 28.6592 17.5796 26.5592 17.8796 24.5192C17.9996 23.4992 18.2396 22.4792 18.5396 21.5192C18.6596 21.0392 18.8396 20.5592 19.0796 20.0792C19.2596 19.6592 19.4996 19.2992 19.8596 18.9992C20.0996 18.7592 20.3996 18.5792 20.7596 18.5792C21.0596 18.5792 21.3596 18.6992 21.5396 18.8192C22.1996 19.2392 22.6796 19.9592 22.9796 20.6792C23.4596 21.6392 23.7596 22.6592 23.9396 23.7392C23.9996 24.2192 24.0596 24.6392 24.0596 25.1192C24.0596 25.5992 23.9996 26.0792 23.8796 26.5592C23.7596 27.2792 23.4596 28.0592 23.1596 28.5992C23.6396 28.1192 25.1396 26.3192 25.2596 22.0592C25.2596 20.9792 25.1396 19.1792 24.7796 17.6192C24.4196 16.0592 23.5796 13.1792 23.3996 12.6992C23.0996 11.4992 22.7996 10.4192 22.4996 9.39922C22.1996 8.31922 21.9596 7.17922 21.8396 6.03922C21.7196 4.95922 21.5396 3.81922 21.4796 2.73922C21.4196 2.25922 21.4196 1.83922 21.4796 1.35922C21.4796 1.11922 21.4796 0.939219 21.5396 0.699219C21.1796 0.759219 20.9396 0.939219 20.6396 1.05922C20.3396 1.23922 20.0396 1.47922 19.7996 1.77922C19.4996 2.07922 19.2596 2.37922 19.0196 2.67922C18.7796 2.97922 18.5996 3.27922 18.4196 3.63922C17.5796 5.19922 16.9796 6.87922 16.5596 8.61922C16.1396 10.4192 15.8396 12.2192 15.5996 14.0792C15.4196 15.5792 15.2996 17.0192 15.2396 18.5192C15.1196 20.3792 15.1196 22.2992 15.1196 24.1592C15.1796 26.4392 15.2396 28.7792 15.4796 31.0592C15.6596 33.3992 15.9596 35.6792 16.3796 37.9592C16.7396 40.1192 17.2196 42.2192 17.8796 44.3192C18.3596 45.8792 18.9596 47.4992 19.9196 48.8192C20.0396 48.9992 20.2196 49.1792 20.3396 49.3592C20.3996 49.4192 20.3996 49.4792 20.4596 49.4792C20.4596 49.5392 20.5796 49.6592 20.6396 49.6592H21.3596C21.4196 49.0592 21.3596 48.3992 21.3596 47.7392Z" fill="black"/>
<path d="M28.4389 18.4587C28.3789 16.9587 28.2589 15.4587 28.0789 14.0187C27.8389 12.2187 27.5389 10.3587 27.1189 8.55867C26.6989 6.81867 26.1589 5.13867 25.2589 3.57867C25.0789 3.27867 24.8989 2.91867 24.6589 2.61867C24.4189 2.31867 24.1789 2.01867 23.8789 1.71867C23.6389 1.47867 23.3389 1.17867 23.0389 0.998672C22.8589 0.878672 22.6189 0.758672 22.3189 0.638672C22.2589 1.23867 22.3189 1.95867 22.3189 2.55867C22.3189 3.03867 22.3789 3.57867 22.3789 4.05867C22.3789 4.41867 22.4389 4.71867 22.4989 5.07867C22.6189 6.03867 22.7389 7.05867 22.9789 8.01867C23.1589 8.91867 23.3989 9.75867 23.6389 10.6587C23.9989 11.9187 24.4189 13.1787 24.8389 14.4387C25.0789 15.2787 25.3189 16.0587 25.4989 16.8987C25.6189 17.3187 25.6789 17.6787 25.7389 18.0987C25.8589 18.5787 25.9189 19.0587 25.9789 19.5387C26.2189 21.6387 26.0989 23.7387 25.7989 25.7787C25.6789 26.7987 25.4389 27.8187 25.1389 28.7787C25.0189 29.2587 24.8389 29.7387 24.5989 30.2187C24.4189 30.6387 24.1789 30.9987 23.8189 31.2987C23.5789 31.5387 23.2789 31.7187 22.9189 31.7187C22.6189 31.7187 22.3189 31.5987 22.1389 31.4787C21.4789 31.0587 20.9989 30.3387 20.6989 29.6187C20.2189 28.6587 19.9189 27.6387 19.7389 26.5587C19.6789 26.0787 19.6189 25.6587 19.6189 25.1787C19.6189 24.6987 19.6789 24.2187 19.7989 23.7387C19.9189 23.0187 20.2189 22.2387 20.5189 21.6987C20.0389 22.1787 18.5389 23.9787 18.4189 28.2387C18.4189 29.3187 18.5389 31.1187 18.8989 32.6787C19.2589 34.2387 20.0989 37.1187 20.2789 37.5987C20.6389 38.6187 20.9389 39.6987 21.1789 40.7787C21.4789 41.8587 21.7189 42.9987 21.8389 44.1387C21.9589 45.2187 22.1389 46.3587 22.1989 47.4387C22.2589 47.9187 22.2589 48.3387 22.1989 48.8187C22.1989 48.9987 22.1989 49.2387 22.1389 49.4187H22.9789C23.0389 49.4187 23.1589 49.2987 23.1589 49.2387C23.2189 49.1787 23.2189 49.1187 23.2789 49.1187C23.4589 48.9387 23.5789 48.7587 23.6989 48.5787C24.6589 47.2587 25.2589 45.6387 25.7389 44.0787C26.3989 41.9787 26.8789 39.8787 27.2389 37.7187C27.6589 35.4387 27.8989 33.0987 28.1389 30.8187C28.3189 28.5387 28.4389 26.1987 28.4989 23.9187C28.5589 22.2387 28.4989 20.3787 28.4389 18.4587Z" fill="black"/>
<path d="M48.9 31.417H45.9V49.717H48.9V31.417Z" fill="black"/>
</g>
<defs>
<clipPath id="clip0_755_21676">
<rect width="54.48" height="49.8" fill="white" transform="translate(14.8181 0.282227)"/>
</clipPath>
</defs>
</svg>
