<?xml version="1.0" encoding="utf-8"?>
<!-- Generator: Adobe Illustrator 28.0.0, SVG Export Plug-In . SVG Version: 6.00 Build 0)  -->
<svg version="1.1" id="Layer_1" xmlns="http://www.w3.org/2000/svg" xmlns:xlink="http://www.w3.org/1999/xlink" x="0px" y="0px"
	 viewBox="0 0 322 100" style="enable-background:new 0 0 322 100;" xml:space="preserve">
<style type="text/css">
	.st0{fill:#FFFFFF;}
</style>
<g>
	<path class="st0" d="M322,99.99C214.7,100,107.41,100,0,100C0,66.72,0,33.43,0,0c107.26,0,214.63,0,322,0
		C322,33.26,322,66.62,322,99.99z M238.71,39.84c-4.93,0-9.6-0.3-14.2,0.16c-1.61,0.16-3.03,2.18-4.53,3.35
		c1.5,0.9,2.95,2.45,4.51,2.58c4.4,0.35,8.85,0.12,12.95,0.12c0.54,7.77,1.33,14.56,1.29,21.34c-0.01,1.92-2.23,4.02-3.85,5.62
		c-0.58,0.57-3.41,0.04-3.43-0.17c-0.21-2-0.23-4.07,0.1-6.06c0.3-1.78,1.08-3.48,1.72-5.19c1.35-3.61,0.58-7.17-2.57-8.77
		c-2.44-1.24-6.86-1.85-8.64-0.47c-4.19,3.25-7.37,7.82-10.88,11.93c-0.93,1.08-1.56,2.42-2.83,4.42c-0.48-4.08-0.49-6.97-1.26-9.65
		c-0.45-1.56-2.09-2.77-3.2-4.14c-1.08,1.56-2.77,3-3.09,4.7c-0.51,2.73,0.41,5.78-0.31,8.41c-0.44,1.6-2.82,2.67-4.32,3.97
		c-1.11-1.57-2.57-3.01-3.2-4.75c-0.45-1.27,0.19-2.94,0.37-4.43c0.88-7.11-3.01-10.41-9.85-8.4c-7.34,2.16-11.94,6.89-13.85,14.33
		c-0.82,3.18-1.78,6.41-5.52,6.25c-0.76-2.84-0.64-5.98-2.12-7.28c-4.84-4.21-6.8-8.98-6.25-15.39c0.31-3.65-2.95-4.95-5.76-2.49
		c-3.6,3.16-7.18,6.46-10.16,10.18c-1,1.25-0.16,3.97-0.16,6.03c2.02-0.48,4.34-0.51,5.99-1.57c1.5-0.96,2.28-3.04,3.41-4.67
		c1.94,3.59,4.01,6.57,5.14,9.87c0.66,1.92,0.51,4.9-0.61,6.41c-0.87,1.17-4.15,1.63-5.74,0.95c-2.41-1.03-4.56-3.09-6.3-5.15
		c-1.87-2.21-3.31-3.4-6.24-1.56c-1.3,0.82-3.9,1.13-4.95,0.36c-1.06-0.78-1.07-3.17-1.26-4.88c-0.11-0.94,0.4-1.94,0.56-2.93
		c0.85-5.38-0.96-7.51-6.36-7.55c-7.13-0.05-15.32,5.99-17.42,12.85c-2.3,7.5-12.13,11.15-19.4,7.11c3.4-1.98,7.08-3.56,10.06-6
		c3.97-3.25,4.79-8.15,2.77-11.63c-2.19-3.77-6.84-5.33-11.81-3.86c-6.77,2-10.98,6.39-12.85,13.32c-0.5,1.86-2.27,4-3.99,4.71
		c-1.4,0.58-3.6-0.79-5.44-1.29c0.68-1.87,0.99-4.01,2.1-5.58c5.52-7.75,8.81-16.39,10.78-25.6c1.58-7.36,1.43-14.6-2.08-21.46
		c-3.67-7.18-10.72-8.14-15.57-1.77c-2.46,3.23-4.47,7.11-5.59,11.01c-3.37,11.67-2.23,23.45,0.18,35.17
		c1.39,6.8-4.24,12.81-11.69,12.06c5.24-6.87,10.38-13.86,3.31-22.2c-1.2-1.41-4.08-2.55-5.79-2.15c-4.12,0.97-8,2.92-11.18,4.17
		c-1.61-1.12-3.42-2.39-5.23-3.65c-1.15,1.94-2.88,3.74-3.35,5.83c-1.04,4.68-1.44,9.5-2.12,14.26c-0.68,4.77-1.76,9.53-1.86,14.31
		c-0.04,1.64,2.34,3.34,3.61,5.01c1.32-1.49,3.28-2.78,3.82-4.52c0.93-2.98,0.87-6.26,1.43-9.37c1.25-6.9,3.82-13.22,9.64-17.49
		c1.42-1.04,4.22-1.3,5.78-0.59c0.92,0.42,1.27,3.63,0.8,5.28c-1.5,5.24-5.15,8.64-10.04,11.13c-1.79,0.91-2.71,3.56-4.02,5.41
		c2.04,1.08,4.01,2.94,6.12,3.12c7.83,0.66,15.17-1.13,21.72-5.76c1.07-0.76,3.26-1.64,3.82-1.16c5.34,4.55,10.71,3.45,16.31,0.35
		c4.86,5.65,11.2,7.29,18.1,6.43c6.23-0.77,11.86-4.04,18.85-2.1c3.07,0.86,7.47-3.05,11.92-5.09c2.8,2.86,6.95,3.15,10.96,0.71
		c2.35,1.85,4.19,3.96,6.51,5c8.61,3.87,17.12,3.28,25.33-1.44c1.08-0.62,2.71-1.82,3.33-1.46c6.55,3.87,11.35,0.43,16.25-3.88
		c3.36,4.91,7.99,5.38,11.7,4.16c2.45,2.47,4.14,5.53,6.03,5.67c1.79,0.13,4.39-2.46,5.62-4.47c3.37-5.54,6.04-11.51,9.36-17.08
		c1.1-1.84,3.36-2.98,5.09-4.43c0.4,0.43,0.8,0.86,1.2,1.29c-1.24,3.22-2.63,6.4-3.68,9.69c-1.17,3.68-0.41,7.37,2.9,9.29
		c5.19,3.02,10.52,1.92,15.41-1.25c6.33,6.34,10.09,6.19,16.26-0.44c1.7-1.83,3.4-3.81,5.5-5.05c1.75-1.03,4.08-1.07,7.43-1.84
		c-1.2,2.06-1.6,2.46-1.66,2.9c-0.28,2.41-1.52,5.72-0.43,7.02c1.51,1.78,5.01,3.07,7.28,2.62c1.8-0.36,3.98-3.5,4.3-5.65
		c0.7-4.78-1.67-8.81-5.69-11.45c-3.64-2.39-7.8-3.35-11.79-1c-2.83,1.67-5.3,3.98-7.87,6.09c-4.08,3.35-6.77,2.83-7.77-2.43
		c-1.11-5.82-1.09-11.86-1.55-17.81c-0.25-3.21,1.29-4.18,4.44-4.41c6.61-0.49,13.25-1.18,19.75-2.46c3.18-0.63,7.05-2.78,5.26-6.9
		c-1.61-3.72-5.18-1.57-7.86-0.47c-6.44,2.64-13.07,3.28-20.07,2.76c0-1.41-0.12-2.39,0.02-3.34c0.71-4.78,1.74-9.53,2.12-14.34
		c0.14-1.78-1.18-3.68-1.84-5.52c-1.66,1.46-3.59,2.73-4.89,4.47c-0.81,1.08-0.71,2.87-0.93,4.35
		C240.25,29.39,239.53,34.3,238.71,39.84z"/>
	<path d="M238.71,39.84c0.82-5.54,1.54-10.45,2.29-15.35c0.23-1.48,0.13-3.27,0.93-4.35c1.3-1.74,3.23-3,4.89-4.47
		c0.66,1.84,1.98,3.74,1.84,5.52c-0.38,4.8-1.41,9.56-2.12,14.34c-0.14,0.94-0.02,1.92-0.02,3.34c6.99,0.52,13.63-0.11,20.07-2.76
		c2.67-1.1,6.24-3.25,7.86,0.47c1.78,4.11-2.08,6.27-5.26,6.9c-6.5,1.28-13.14,1.98-19.75,2.46c-3.15,0.23-4.69,1.2-4.44,4.41
		c0.46,5.95,0.44,11.99,1.55,17.81c1,5.25,3.69,5.77,7.77,2.43c2.57-2.11,5.03-4.42,7.87-6.09c3.99-2.35,8.15-1.39,11.79,1
		c4.02,2.64,6.39,6.67,5.69,11.45c-0.32,2.15-2.5,5.29-4.3,5.65c-2.27,0.45-5.77-0.84-7.28-2.62c-1.1-1.3,0.15-4.61,0.43-7.02
		c0.05-0.44,0.46-0.84,1.66-2.9c-3.35,0.77-5.68,0.81-7.43,1.84c-2.1,1.24-3.8,3.22-5.5,5.05c-6.17,6.63-9.93,6.78-16.26,0.44
		c-4.89,3.17-10.22,4.27-15.41,1.25c-3.32-1.93-4.07-5.62-2.9-9.29c1.04-3.29,2.44-6.46,3.68-9.69c-0.4-0.43-0.8-0.86-1.2-1.29
		c-1.73,1.46-3.99,2.6-5.09,4.43c-3.33,5.57-5.99,11.54-9.36,17.08c-1.23,2.01-3.83,4.6-5.62,4.47c-1.9-0.14-3.58-3.21-6.03-5.67
		c-3.7,1.21-8.33,0.74-11.7-4.16c-4.9,4.3-9.7,7.75-16.25,3.88c-0.61-0.36-2.25,0.84-3.33,1.46c-8.21,4.72-16.72,5.31-25.33,1.44
		c-2.32-1.04-4.15-3.15-6.51-5c-4.02,2.44-8.16,2.15-10.96-0.71c-4.45,2.04-8.84,5.95-11.92,5.09c-6.99-1.95-12.62,1.32-18.85,2.1
		c-6.9,0.86-13.24-0.78-18.1-6.43c-5.6,3.1-10.97,4.2-16.31-0.35c-0.56-0.48-2.75,0.4-3.82,1.16c-6.55,4.63-13.89,6.41-21.72,5.76
		c-2.11-0.18-4.09-2.03-6.12-3.12c1.31-1.85,2.23-4.5,4.02-5.41c4.89-2.49,8.55-5.89,10.04-11.13c0.47-1.65,0.12-4.86-0.8-5.28
		c-1.56-0.71-4.37-0.45-5.78,0.59c-5.82,4.27-8.39,10.59-9.64,17.49c-0.56,3.12-0.5,6.39-1.43,9.37c-0.54,1.73-2.5,3.03-3.82,4.52
		c-1.27-1.67-3.65-3.37-3.61-5.01c0.1-4.78,1.18-9.54,1.86-14.31c0.68-4.76,1.08-9.58,2.12-14.26c0.46-2.09,2.19-3.9,3.35-5.83
		c1.81,1.26,3.62,2.53,5.23,3.65c3.18-1.25,7.07-3.2,11.18-4.17c1.71-0.4,4.59,0.74,5.79,2.15c7.07,8.34,1.94,15.33-3.31,22.2
		c7.44,0.75,13.08-5.26,11.69-12.06c-2.4-11.71-3.54-23.5-0.18-35.17c1.13-3.9,3.13-7.78,5.59-11.01c4.86-6.37,11.9-5.41,15.57,1.77
		c3.51,6.86,3.66,14.1,2.08,21.46c-1.97,9.21-5.26,17.85-10.78,25.6c-1.11,1.56-1.42,3.7-2.1,5.58c1.84,0.5,4.04,1.87,5.44,1.29
		c1.72-0.71,3.48-2.85,3.99-4.71c1.88-6.93,6.08-11.31,12.85-13.32c4.98-1.47,9.62,0.1,11.81,3.86c2.03,3.48,1.21,8.38-2.77,11.63
		c-2.98,2.44-6.65,4.01-10.06,6c7.26,4.03,17.1,0.39,19.4-7.11c2.11-6.86,10.29-12.9,17.42-12.85c5.4,0.04,7.21,2.17,6.36,7.55
		c-0.16,0.99-0.66,1.99-0.56,2.93c0.19,1.71,0.2,4.1,1.26,4.88c1.05,0.77,3.65,0.46,4.95-0.36c2.93-1.84,4.37-0.64,6.24,1.56
		c1.75,2.06,3.89,4.12,6.3,5.15c1.59,0.68,4.86,0.22,5.74-0.95c1.12-1.51,1.27-4.48,0.61-6.41c-1.13-3.3-3.2-6.27-5.14-9.87
		c-1.13,1.63-1.91,3.71-3.41,4.67c-1.65,1.06-3.96,1.09-5.99,1.57c0-2.05-0.84-4.78,0.16-6.03c2.99-3.72,6.56-7.02,10.16-10.18
		c2.81-2.47,6.07-1.17,5.76,2.49c-0.54,6.41,1.41,11.18,6.25,15.39c1.49,1.29,1.37,4.44,2.12,7.28c3.73,0.16,4.7-3.07,5.52-6.25
		c1.91-7.44,6.51-12.17,13.85-14.33c6.84-2.01,10.73,1.29,9.85,8.4c-0.18,1.49-0.83,3.16-0.37,4.43c0.62,1.74,2.09,3.18,3.2,4.75
		c1.51-1.31,3.89-2.38,4.32-3.97c0.72-2.63-0.21-5.68,0.31-8.41c0.32-1.7,2.01-3.14,3.09-4.7c1.11,1.37,2.75,2.58,3.2,4.14
		c0.76,2.68,0.78,5.57,1.26,9.65c1.27-2,1.9-3.34,2.83-4.42c3.51-4.11,6.69-8.68,10.88-11.93c1.78-1.38,6.2-0.77,8.64,0.47
		c3.16,1.6,3.92,5.17,2.57,8.77c-0.64,1.71-1.42,3.42-1.72,5.19c-0.33,1.98-0.31,4.06-0.1,6.06c0.02,0.21,2.85,0.74,3.43,0.17
		c1.62-1.6,3.84-3.71,3.85-5.62c0.04-6.79-0.75-13.58-1.29-21.34c-4.1,0-8.55,0.23-12.95-0.12c-1.56-0.13-3.01-1.68-4.51-2.58
		c1.51-1.17,2.93-3.19,4.53-3.35C229.11,39.55,233.77,39.84,238.71,39.84z M61.44,59.87c0.48,0,0.96,0.01,1.45,0.01
		c6.33-10.02,8.82-21.11,8.09-32.93c-0.13-2.05-1.99-4-3.05-6c-1.69,1.61-4.47,2.99-4.86,4.87c-1.45,6.92-2.47,13.99-2.92,21.05
		C59.88,51.16,60.96,55.54,61.44,59.87z M122.07,62.07c-4.88,0.12-9.29,3.49-10.33,7.85c-0.27,1.12-0.08,3.3,0.43,3.48
		c1.2,0.42,3.15,0.45,4.03-0.28C119.48,70.38,122.59,67.36,122.07,62.07z M81.29,68.06c0.39,0.59,0.77,1.17,1.16,1.76
		c3.54-2.06,7.17-3.99,10.54-6.3c0.69-0.47,0.72-2.44,0.44-3.56c-0.11-0.42-2.06-0.74-3.02-0.51
		C85.73,60.58,82.62,63.44,81.29,68.06z M185.77,60.18c-5.2,0.79-7.7,4.23-9.51,8.17c-0.47,1.02,0.42,2.66,0.69,4.01
		c1.21-0.29,2.71-0.21,3.57-0.92C183.92,68.63,186.07,65.11,185.77,60.18z"/>
	<path class="st0" d="M61.44,59.87c-0.48-4.34-1.56-8.71-1.29-13c0.45-7.06,1.47-14.13,2.92-21.05c0.39-1.88,3.18-3.26,4.86-4.87
		c1.06,2,2.92,3.94,3.05,6c0.73,11.82-1.76,22.91-8.09,32.93C62.4,59.88,61.92,59.87,61.44,59.87z"/>
	<path class="st0" d="M122.07,62.07c0.52,5.29-2.59,8.31-5.87,11.05c-0.88,0.73-2.83,0.71-4.03,0.28c-0.51-0.18-0.7-2.35-0.43-3.48
		C112.78,65.56,117.19,62.19,122.07,62.07z"/>
	<path class="st0" d="M81.29,68.06c1.33-4.62,4.44-7.48,9.11-8.61c0.97-0.23,2.92,0.09,3.02,0.51c0.28,1.12,0.26,3.09-0.44,3.56
		c-3.37,2.31-7,4.24-10.54,6.3C82.07,69.23,81.68,68.64,81.29,68.06z"/>
	<path class="st0" d="M185.77,60.18c0.3,4.93-1.85,8.45-5.25,11.26c-0.86,0.71-2.36,0.64-3.57,0.92c-0.27-1.35-1.16-3-0.69-4.01
		C178.07,64.41,180.57,60.96,185.77,60.18z"/>
</g>
</svg>
